<mxfile host="app.diagrams.net" modified="2020-12-26T04:51:18.889Z" agent="5.0 (Macintosh; Intel Mac OS X 10_15_6) AppleWebKit/605.1.15 (KHTML, like Gecko) Version/14.0.1 Safari/605.1.15" etag="J3GmGEDHi7j0zrgxKzM7" version="14.1.2" type="github" pages="4">
  <diagram id="dMZ0kmUw3PBsIGC8fK4_" name="Страница 1">
    <mxGraphModel dx="2013" dy="645" grid="1" gridSize="10" guides="1" tooltips="1" connect="1" arrows="1" fold="1" page="1" pageScale="1" pageWidth="827" pageHeight="1169" math="0" shadow="0">
      <root>
        <mxCell id="0" />
        <mxCell id="1" parent="0" />
        <mxCell id="kbv3keUjFInM8lNe4cfh-9" style="edgeStyle=orthogonalEdgeStyle;curved=0;rounded=1;sketch=0;orthogonalLoop=1;jettySize=auto;html=1;exitX=1;exitY=0.5;exitDx=0;exitDy=0;entryX=0;entryY=0.5;entryDx=0;entryDy=0;endArrow=open;endFill=0;" parent="1" source="kbv3keUjFInM8lNe4cfh-7" target="kbv3keUjFInM8lNe4cfh-8" edge="1">
          <mxGeometry relative="1" as="geometry" />
        </mxCell>
        <mxCell id="kbv3keUjFInM8lNe4cfh-7" value="(Абонент)&lt;br&gt;Совершает звонок" style="rounded=1;whiteSpace=wrap;html=1;" parent="1" vertex="1">
          <mxGeometry x="80" y="565" width="120" height="40" as="geometry" />
        </mxCell>
        <mxCell id="kbv3keUjFInM8lNe4cfh-10" style="edgeStyle=orthogonalEdgeStyle;curved=0;rounded=1;sketch=0;orthogonalLoop=1;jettySize=auto;html=1;exitX=1;exitY=0.5;exitDx=0;exitDy=0;endArrow=open;endFill=0;entryX=0;entryY=0.5;entryDx=0;entryDy=0;" parent="1" source="kbv3keUjFInM8lNe4cfh-8" target="kbv3keUjFInM8lNe4cfh-11" edge="1">
          <mxGeometry relative="1" as="geometry">
            <mxPoint x="440" y="340" as="targetPoint" />
          </mxGeometry>
        </mxCell>
        <mxCell id="kbv3keUjFInM8lNe4cfh-15" style="edgeStyle=orthogonalEdgeStyle;curved=0;rounded=1;sketch=0;orthogonalLoop=1;jettySize=auto;html=1;exitX=0.5;exitY=0;exitDx=0;exitDy=0;entryX=0.5;entryY=0;entryDx=0;entryDy=0;endArrow=open;endFill=0;" parent="1" source="kbv3keUjFInM8lNe4cfh-8" target="kbv3keUjFInM8lNe4cfh-7" edge="1">
          <mxGeometry relative="1" as="geometry" />
        </mxCell>
        <mxCell id="kbv3keUjFInM8lNe4cfh-8" value="Сформулипрована ли проблема" style="rhombus;whiteSpace=wrap;html=1;" parent="1" vertex="1">
          <mxGeometry x="220" y="535" width="160" height="100" as="geometry" />
        </mxCell>
        <mxCell id="kbv3keUjFInM8lNe4cfh-11" value="Обработка обращения" style="rounded=1;whiteSpace=wrap;html=1;sketch=0;" parent="1" vertex="1">
          <mxGeometry x="414" y="555" width="120" height="60" as="geometry" />
        </mxCell>
        <mxCell id="kbv3keUjFInM8lNe4cfh-20" style="edgeStyle=orthogonalEdgeStyle;curved=0;rounded=1;sketch=0;orthogonalLoop=1;jettySize=auto;html=1;exitX=1;exitY=0.5;exitDx=0;exitDy=0;entryX=0;entryY=0.5;entryDx=0;entryDy=0;endArrow=open;endFill=0;" parent="1" source="kbv3keUjFInM8lNe4cfh-51" target="kbv3keUjFInM8lNe4cfh-7" edge="1">
          <mxGeometry relative="1" as="geometry">
            <mxPoint x="100" y="659.9999999999998" as="sourcePoint" />
          </mxGeometry>
        </mxCell>
        <mxCell id="kbv3keUjFInM8lNe4cfh-80" value="" style="edgeStyle=orthogonalEdgeStyle;curved=0;rounded=1;sketch=0;orthogonalLoop=1;jettySize=auto;html=1;startArrow=open;startFill=0;endArrow=none;endFill=0;" parent="1" target="kbv3keUjFInM8lNe4cfh-11" edge="1">
          <mxGeometry relative="1" as="geometry">
            <mxPoint x="580" y="585" as="sourcePoint" />
          </mxGeometry>
        </mxCell>
        <mxCell id="kbv3keUjFInM8lNe4cfh-22" value="" style="html=1;points=[];perimeter=orthogonalPerimeter;fillColor=#000000;strokeColor=none;rounded=1;sketch=0;" parent="1" vertex="1">
          <mxGeometry x="580" y="495" width="5" height="160" as="geometry" />
        </mxCell>
        <mxCell id="kbv3keUjFInM8lNe4cfh-29" style="edgeStyle=orthogonalEdgeStyle;curved=0;rounded=1;sketch=0;orthogonalLoop=1;jettySize=auto;html=1;exitX=0;exitY=0.5;exitDx=0;exitDy=0;entryX=1;entryY=0.313;entryDx=0;entryDy=0;entryPerimeter=0;endArrow=none;endFill=0;startArrow=open;startFill=0;" parent="1" source="kbv3keUjFInM8lNe4cfh-25" target="kbv3keUjFInM8lNe4cfh-22" edge="1">
          <mxGeometry relative="1" as="geometry" />
        </mxCell>
        <mxCell id="kbv3keUjFInM8lNe4cfh-34" style="edgeStyle=orthogonalEdgeStyle;curved=0;rounded=1;sketch=0;orthogonalLoop=1;jettySize=auto;html=1;exitX=1;exitY=0.5;exitDx=0;exitDy=0;startArrow=none;startFill=0;endArrow=open;endFill=0;" parent="1" source="kbv3keUjFInM8lNe4cfh-25" target="kbv3keUjFInM8lNe4cfh-32" edge="1">
          <mxGeometry relative="1" as="geometry" />
        </mxCell>
        <mxCell id="kbv3keUjFInM8lNe4cfh-25" value="Указать технику" style="rounded=1;whiteSpace=wrap;html=1;sketch=0;" parent="1" vertex="1">
          <mxGeometry x="640" y="520" width="90" height="50" as="geometry" />
        </mxCell>
        <mxCell id="kbv3keUjFInM8lNe4cfh-28" style="edgeStyle=orthogonalEdgeStyle;curved=0;rounded=1;sketch=0;orthogonalLoop=1;jettySize=auto;html=1;exitX=0;exitY=0.5;exitDx=0;exitDy=0;entryX=0.8;entryY=0.813;entryDx=0;entryDy=0;entryPerimeter=0;endArrow=none;endFill=0;startArrow=open;startFill=0;" parent="1" source="kbv3keUjFInM8lNe4cfh-27" target="kbv3keUjFInM8lNe4cfh-22" edge="1">
          <mxGeometry relative="1" as="geometry" />
        </mxCell>
        <mxCell id="kbv3keUjFInM8lNe4cfh-35" style="edgeStyle=orthogonalEdgeStyle;curved=0;rounded=1;sketch=0;orthogonalLoop=1;jettySize=auto;html=1;exitX=1;exitY=0.5;exitDx=0;exitDy=0;entryX=0;entryY=0.5;entryDx=0;entryDy=0;startArrow=none;startFill=0;endArrow=open;endFill=0;" parent="1" source="kbv3keUjFInM8lNe4cfh-27" target="kbv3keUjFInM8lNe4cfh-32" edge="1">
          <mxGeometry relative="1" as="geometry" />
        </mxCell>
        <mxCell id="kbv3keUjFInM8lNe4cfh-27" value="Указать абонента" style="rounded=1;whiteSpace=wrap;html=1;sketch=0;" parent="1" vertex="1">
          <mxGeometry x="640" y="605" width="100" height="40" as="geometry" />
        </mxCell>
        <mxCell id="kbv3keUjFInM8lNe4cfh-37" style="edgeStyle=orthogonalEdgeStyle;curved=0;rounded=1;sketch=0;orthogonalLoop=1;jettySize=auto;html=1;exitX=0.5;exitY=0;exitDx=0;exitDy=0;entryX=0.5;entryY=1;entryDx=0;entryDy=0;startArrow=none;startFill=0;endArrow=open;endFill=0;" parent="1" source="kbv3keUjFInM8lNe4cfh-32" target="kbv3keUjFInM8lNe4cfh-36" edge="1">
          <mxGeometry relative="1" as="geometry" />
        </mxCell>
        <mxCell id="kbv3keUjFInM8lNe4cfh-39" style="edgeStyle=orthogonalEdgeStyle;curved=0;rounded=1;sketch=0;orthogonalLoop=1;jettySize=auto;html=1;exitX=1;exitY=0.5;exitDx=0;exitDy=0;startArrow=none;startFill=0;endArrow=open;endFill=0;" parent="1" edge="1">
          <mxGeometry relative="1" as="geometry">
            <mxPoint x="1070" y="585" as="targetPoint" />
            <mxPoint x="1070" y="585" as="sourcePoint" />
          </mxGeometry>
        </mxCell>
        <mxCell id="kbv3keUjFInM8lNe4cfh-32" value="Есть ли данный пользователь/техники в система" style="rhombus;whiteSpace=wrap;html=1;" parent="1" vertex="1">
          <mxGeometry x="790" y="495" width="120" height="180" as="geometry" />
        </mxCell>
        <mxCell id="kbv3keUjFInM8lNe4cfh-36" value="Регистрирует&amp;nbsp;" style="rounded=1;whiteSpace=wrap;html=1;sketch=0;" parent="1" vertex="1">
          <mxGeometry x="795" y="370" width="110" height="40" as="geometry" />
        </mxCell>
        <mxCell id="kbv3keUjFInM8lNe4cfh-38" value="Нет" style="text;html=1;align=center;verticalAlign=middle;resizable=0;points=[];autosize=1;" parent="1" vertex="1">
          <mxGeometry x="780" y="465" width="40" height="20" as="geometry" />
        </mxCell>
        <mxCell id="kbv3keUjFInM8lNe4cfh-74" value="" style="edgeStyle=orthogonalEdgeStyle;curved=0;rounded=1;sketch=0;orthogonalLoop=1;jettySize=auto;html=1;startArrow=open;startFill=0;endArrow=none;endFill=0;" parent="1" source="kbv3keUjFInM8lNe4cfh-40" target="kbv3keUjFInM8lNe4cfh-32" edge="1">
          <mxGeometry relative="1" as="geometry" />
        </mxCell>
        <mxCell id="kbv3keUjFInM8lNe4cfh-40" value="" style="html=1;points=[];perimeter=orthogonalPerimeter;fillColor=#000000;strokeColor=none;rounded=1;sketch=0;" parent="1" vertex="1">
          <mxGeometry x="950" y="505" width="5" height="160" as="geometry" />
        </mxCell>
        <mxCell id="kbv3keUjFInM8lNe4cfh-56" style="edgeStyle=orthogonalEdgeStyle;curved=0;rounded=1;sketch=0;orthogonalLoop=1;jettySize=auto;html=1;exitX=0.5;exitY=0;exitDx=0;exitDy=0;entryX=0.5;entryY=1;entryDx=0;entryDy=0;startArrow=none;startFill=0;endArrow=open;endFill=0;" parent="1" source="kbv3keUjFInM8lNe4cfh-41" target="kbv3keUjFInM8lNe4cfh-55" edge="1">
          <mxGeometry relative="1" as="geometry" />
        </mxCell>
        <mxCell id="kbv3keUjFInM8lNe4cfh-79" value="" style="edgeStyle=orthogonalEdgeStyle;curved=0;rounded=1;sketch=0;orthogonalLoop=1;jettySize=auto;html=1;startArrow=open;startFill=0;endArrow=none;endFill=0;" parent="1" source="kbv3keUjFInM8lNe4cfh-41" target="kbv3keUjFInM8lNe4cfh-44" edge="1">
          <mxGeometry relative="1" as="geometry" />
        </mxCell>
        <mxCell id="kbv3keUjFInM8lNe4cfh-41" value="Заявка" style="rounded=0;whiteSpace=wrap;html=1;sketch=0;" parent="1" vertex="1">
          <mxGeometry x="1290" y="555" width="120" height="60" as="geometry" />
        </mxCell>
        <mxCell id="kbv3keUjFInM8lNe4cfh-46" style="edgeStyle=orthogonalEdgeStyle;curved=0;rounded=1;sketch=0;orthogonalLoop=1;jettySize=auto;html=1;exitX=0.5;exitY=0;exitDx=0;exitDy=0;startArrow=none;startFill=0;endArrow=open;endFill=0;entryX=0.5;entryY=1;entryDx=0;entryDy=0;" parent="1" source="kbv3keUjFInM8lNe4cfh-44" target="kbv3keUjFInM8lNe4cfh-47" edge="1">
          <mxGeometry relative="1" as="geometry">
            <mxPoint x="1310" y="440" as="targetPoint" />
          </mxGeometry>
        </mxCell>
        <mxCell id="kbv3keUjFInM8lNe4cfh-47" value="" style="ellipse;html=1;shape=endState;fillColor=#000000;strokeColor=#000000;rounded=1;sketch=0;" parent="1" vertex="1">
          <mxGeometry x="1165" y="360" width="30" height="30" as="geometry" />
        </mxCell>
        <mxCell id="kbv3keUjFInM8lNe4cfh-50" value="Нет" style="text;html=1;align=center;verticalAlign=middle;resizable=0;points=[];autosize=1;" parent="1" vertex="1">
          <mxGeometry x="1245" y="595" width="40" height="20" as="geometry" />
        </mxCell>
        <mxCell id="kbv3keUjFInM8lNe4cfh-51" value="" style="ellipse;fillColor=#000000;strokeColor=none;rounded=0;sketch=0;" parent="1" vertex="1">
          <mxGeometry x="10" y="570" width="30" height="30" as="geometry" />
        </mxCell>
        <mxCell id="kbv3keUjFInM8lNe4cfh-76" value="" style="edgeStyle=orthogonalEdgeStyle;curved=0;rounded=1;sketch=0;orthogonalLoop=1;jettySize=auto;html=1;startArrow=open;startFill=0;endArrow=none;endFill=0;" parent="1" source="kbv3keUjFInM8lNe4cfh-44" target="kbv3keUjFInM8lNe4cfh-73" edge="1">
          <mxGeometry relative="1" as="geometry" />
        </mxCell>
        <mxCell id="kbv3keUjFInM8lNe4cfh-44" value="Помогла&lt;br&gt;ли устная консультация" style="rhombus;whiteSpace=wrap;html=1;" parent="1" vertex="1">
          <mxGeometry x="1115" y="527.5" width="130" height="115" as="geometry" />
        </mxCell>
        <mxCell id="kbv3keUjFInM8lNe4cfh-55" value="(ИС)&lt;br&gt;Занесение заявки в базу данных&amp;nbsp;" style="rounded=1;whiteSpace=wrap;html=1;sketch=0;" parent="1" vertex="1">
          <mxGeometry x="1290" y="405" width="120" height="60" as="geometry" />
        </mxCell>
        <mxCell id="kbv3keUjFInM8lNe4cfh-58" value="" style="ellipse;html=1;shape=endState;fillColor=#000000;strokeColor=#000000;rounded=1;sketch=0;" parent="1" vertex="1">
          <mxGeometry x="1450" y="490" width="30" height="30" as="geometry" />
        </mxCell>
        <mxCell id="kbv3keUjFInM8lNe4cfh-59" style="edgeStyle=orthogonalEdgeStyle;curved=0;rounded=1;sketch=0;orthogonalLoop=1;jettySize=auto;html=1;exitX=1;exitY=0.5;exitDx=0;exitDy=0;startArrow=none;startFill=0;endArrow=open;endFill=0;" parent="1" source="kbv3keUjFInM8lNe4cfh-55" target="kbv3keUjFInM8lNe4cfh-58" edge="1">
          <mxGeometry relative="1" as="geometry">
            <mxPoint x="1440" y="509.7142857142858" as="targetPoint" />
            <mxPoint x="1360" y="510" as="sourcePoint" />
          </mxGeometry>
        </mxCell>
        <mxCell id="kbv3keUjFInM8lNe4cfh-61" value="Абонент" style="html=1;rounded=0;sketch=0;" parent="1" vertex="1">
          <mxGeometry y="270" width="400" height="50" as="geometry" />
        </mxCell>
        <mxCell id="kbv3keUjFInM8lNe4cfh-63" value="Да" style="text;html=1;align=center;verticalAlign=middle;resizable=0;points=[];autosize=1;" parent="1" vertex="1">
          <mxGeometry x="375" y="550" width="30" height="20" as="geometry" />
        </mxCell>
        <mxCell id="kbv3keUjFInM8lNe4cfh-64" value="Нет" style="text;html=1;align=center;verticalAlign=middle;resizable=0;points=[];autosize=1;" parent="1" vertex="1">
          <mxGeometry x="190" y="495" width="40" height="20" as="geometry" />
        </mxCell>
        <mxCell id="kbv3keUjFInM8lNe4cfh-65" value="Оператор" style="html=1;rounded=0;sketch=0;" parent="1" vertex="1">
          <mxGeometry x="400" y="270" width="880" height="50" as="geometry" />
        </mxCell>
        <mxCell id="kbv3keUjFInM8lNe4cfh-72" value="ИС" style="html=1;rounded=0;sketch=0;" parent="1" vertex="1">
          <mxGeometry x="1280" y="270" width="200" height="50" as="geometry" />
        </mxCell>
        <mxCell id="kbv3keUjFInM8lNe4cfh-75" value="" style="edgeStyle=orthogonalEdgeStyle;curved=0;rounded=1;sketch=0;orthogonalLoop=1;jettySize=auto;html=1;startArrow=open;startFill=0;endArrow=none;endFill=0;" parent="1" source="kbv3keUjFInM8lNe4cfh-73" target="kbv3keUjFInM8lNe4cfh-32" edge="1">
          <mxGeometry relative="1" as="geometry" />
        </mxCell>
        <mxCell id="kbv3keUjFInM8lNe4cfh-73" value="Устная консультация" style="rounded=1;whiteSpace=wrap;html=1;sketch=0;" parent="1" vertex="1">
          <mxGeometry x="990" y="565" width="100" height="40" as="geometry" />
        </mxCell>
        <mxCell id="kbv3keUjFInM8lNe4cfh-78" value="Да" style="text;html=1;align=center;verticalAlign=middle;resizable=0;points=[];autosize=1;" parent="1" vertex="1">
          <mxGeometry x="1145" y="460" width="30" height="20" as="geometry" />
        </mxCell>
        <mxCell id="kbv3keUjFInM8lNe4cfh-83" value="" style="endArrow=none;html=1;entryX=0;entryY=1;entryDx=0;entryDy=0;" parent="1" target="kbv3keUjFInM8lNe4cfh-65" edge="1">
          <mxGeometry width="50" height="50" relative="1" as="geometry">
            <mxPoint x="400" y="680" as="sourcePoint" />
            <mxPoint x="540" y="450" as="targetPoint" />
          </mxGeometry>
        </mxCell>
        <mxCell id="kbv3keUjFInM8lNe4cfh-84" value="" style="endArrow=none;html=1;entryX=0;entryY=1;entryDx=0;entryDy=0;" parent="1" edge="1">
          <mxGeometry width="50" height="50" relative="1" as="geometry">
            <mxPoint x="-1" y="674.9999999999998" as="sourcePoint" />
            <mxPoint x="-1" y="315" as="targetPoint" />
          </mxGeometry>
        </mxCell>
        <mxCell id="kbv3keUjFInM8lNe4cfh-85" value="" style="endArrow=none;html=1;entryX=0;entryY=1;entryDx=0;entryDy=0;" parent="1" edge="1">
          <mxGeometry width="50" height="50" relative="1" as="geometry">
            <mxPoint x="1280" y="679.9999999999998" as="sourcePoint" />
            <mxPoint x="1280" y="320" as="targetPoint" />
          </mxGeometry>
        </mxCell>
        <mxCell id="kbv3keUjFInM8lNe4cfh-86" value="" style="endArrow=none;html=1;entryX=0;entryY=1;entryDx=0;entryDy=0;" parent="1" edge="1">
          <mxGeometry width="50" height="50" relative="1" as="geometry">
            <mxPoint x="1480" y="679.9999999999998" as="sourcePoint" />
            <mxPoint x="1480" y="320" as="targetPoint" />
          </mxGeometry>
        </mxCell>
        <mxCell id="kbv3keUjFInM8lNe4cfh-87" value="" style="endArrow=none;html=1;" parent="1" edge="1">
          <mxGeometry width="50" height="50" relative="1" as="geometry">
            <mxPoint y="680" as="sourcePoint" />
            <mxPoint x="1480" y="680" as="targetPoint" />
          </mxGeometry>
        </mxCell>
      </root>
    </mxGraphModel>
  </diagram>
  <diagram id="2aEOWQZ2vACusORc6lci" name="Страница 2">
    <mxGraphModel dx="1186" dy="645" grid="1" gridSize="10" guides="1" tooltips="1" connect="1" arrows="1" fold="1" page="1" pageScale="1" pageWidth="827" pageHeight="1169" math="0" shadow="0">
      <root>
        <mxCell id="OSRMty_R7psP0_w_z1_h-0" />
        <mxCell id="OSRMty_R7psP0_w_z1_h-1" parent="OSRMty_R7psP0_w_z1_h-0" />
        <mxCell id="i46qUyYU0RwxoxC5pdWs-0" style="edgeStyle=orthogonalEdgeStyle;curved=0;rounded=1;sketch=0;orthogonalLoop=1;jettySize=auto;html=1;exitX=1;exitY=0.5;exitDx=0;exitDy=0;entryX=0;entryY=0.5;entryDx=0;entryDy=0;endArrow=open;endFill=0;" edge="1" parent="OSRMty_R7psP0_w_z1_h-1" source="i46qUyYU0RwxoxC5pdWs-1" target="i46qUyYU0RwxoxC5pdWs-3">
          <mxGeometry relative="1" as="geometry" />
        </mxCell>
        <mxCell id="i46qUyYU0RwxoxC5pdWs-1" value="(Абонент)&lt;br&gt;Совершает звонок" style="rounded=1;whiteSpace=wrap;html=1;" vertex="1" parent="OSRMty_R7psP0_w_z1_h-1">
          <mxGeometry x="230" y="320" width="120" height="40" as="geometry" />
        </mxCell>
        <mxCell id="i46qUyYU0RwxoxC5pdWs-2" style="edgeStyle=orthogonalEdgeStyle;curved=0;rounded=1;sketch=0;orthogonalLoop=1;jettySize=auto;html=1;exitX=0.5;exitY=0;exitDx=0;exitDy=0;entryX=0.5;entryY=0;entryDx=0;entryDy=0;endArrow=open;endFill=0;" edge="1" parent="OSRMty_R7psP0_w_z1_h-1" source="i46qUyYU0RwxoxC5pdWs-3" target="i46qUyYU0RwxoxC5pdWs-1">
          <mxGeometry relative="1" as="geometry" />
        </mxCell>
        <mxCell id="i46qUyYU0RwxoxC5pdWs-3" value="Сформулипрована ли проблема" style="rhombus;whiteSpace=wrap;html=1;" vertex="1" parent="OSRMty_R7psP0_w_z1_h-1">
          <mxGeometry x="370" y="290" width="160" height="100" as="geometry" />
        </mxCell>
        <mxCell id="i46qUyYU0RwxoxC5pdWs-4" style="edgeStyle=orthogonalEdgeStyle;curved=0;rounded=1;sketch=0;orthogonalLoop=1;jettySize=auto;html=1;exitX=1;exitY=0.5;exitDx=0;exitDy=0;entryX=0;entryY=0.5;entryDx=0;entryDy=0;endArrow=open;endFill=0;" edge="1" parent="OSRMty_R7psP0_w_z1_h-1" target="i46qUyYU0RwxoxC5pdWs-1">
          <mxGeometry relative="1" as="geometry">
            <mxPoint x="190" y="340" as="sourcePoint" />
          </mxGeometry>
        </mxCell>
        <mxCell id="i46qUyYU0RwxoxC5pdWs-5" value="Нет" style="text;html=1;align=center;verticalAlign=middle;resizable=0;points=[];autosize=1;" vertex="1" parent="OSRMty_R7psP0_w_z1_h-1">
          <mxGeometry x="340" y="250" width="40" height="20" as="geometry" />
        </mxCell>
        <mxCell id="oHsRJ-2U7GzlZ_MLyaQh-0" style="edgeStyle=orthogonalEdgeStyle;curved=0;rounded=1;sketch=0;orthogonalLoop=1;jettySize=auto;html=1;exitX=1;exitY=0.5;exitDx=0;exitDy=0;entryX=0;entryY=0.5;entryDx=0;entryDy=0;endArrow=open;endFill=0;" edge="1" parent="OSRMty_R7psP0_w_z1_h-1" source="oHsRJ-2U7GzlZ_MLyaQh-1" target="oHsRJ-2U7GzlZ_MLyaQh-3">
          <mxGeometry relative="1" as="geometry" />
        </mxCell>
        <mxCell id="oHsRJ-2U7GzlZ_MLyaQh-1" value="(Абонент)&lt;br&gt;Совершает звонок" style="rounded=1;whiteSpace=wrap;html=1;" vertex="1" parent="OSRMty_R7psP0_w_z1_h-1">
          <mxGeometry x="230" y="320" width="120" height="40" as="geometry" />
        </mxCell>
        <mxCell id="oHsRJ-2U7GzlZ_MLyaQh-2" style="edgeStyle=orthogonalEdgeStyle;curved=0;rounded=1;sketch=0;orthogonalLoop=1;jettySize=auto;html=1;exitX=0.5;exitY=0;exitDx=0;exitDy=0;entryX=0.5;entryY=0;entryDx=0;entryDy=0;endArrow=open;endFill=0;" edge="1" parent="OSRMty_R7psP0_w_z1_h-1" source="oHsRJ-2U7GzlZ_MLyaQh-3" target="oHsRJ-2U7GzlZ_MLyaQh-1">
          <mxGeometry relative="1" as="geometry" />
        </mxCell>
        <mxCell id="oHsRJ-2U7GzlZ_MLyaQh-3" value="Сформулипрована ли проблема" style="rhombus;whiteSpace=wrap;html=1;" vertex="1" parent="OSRMty_R7psP0_w_z1_h-1">
          <mxGeometry x="370" y="290" width="160" height="100" as="geometry" />
        </mxCell>
        <mxCell id="oHsRJ-2U7GzlZ_MLyaQh-4" style="edgeStyle=orthogonalEdgeStyle;curved=0;rounded=1;sketch=0;orthogonalLoop=1;jettySize=auto;html=1;exitX=1;exitY=0.5;exitDx=0;exitDy=0;entryX=0;entryY=0.5;entryDx=0;entryDy=0;endArrow=open;endFill=0;" edge="1" parent="OSRMty_R7psP0_w_z1_h-1" source="oHsRJ-2U7GzlZ_MLyaQh-5" target="oHsRJ-2U7GzlZ_MLyaQh-1">
          <mxGeometry relative="1" as="geometry">
            <mxPoint x="250" y="414.9999999999998" as="sourcePoint" />
          </mxGeometry>
        </mxCell>
        <mxCell id="oHsRJ-2U7GzlZ_MLyaQh-5" value="" style="ellipse;fillColor=#000000;strokeColor=none;rounded=0;sketch=0;" vertex="1" parent="OSRMty_R7psP0_w_z1_h-1">
          <mxGeometry x="160" y="325" width="30" height="30" as="geometry" />
        </mxCell>
        <mxCell id="3Prb6uu0wLT552GgA5c9-0" value="" style="endArrow=classic;html=1;exitX=1;exitY=0.5;exitDx=0;exitDy=0;" edge="1" parent="OSRMty_R7psP0_w_z1_h-1" source="oHsRJ-2U7GzlZ_MLyaQh-3">
          <mxGeometry width="50" height="50" relative="1" as="geometry">
            <mxPoint x="620" y="500" as="sourcePoint" />
            <mxPoint x="600" y="340" as="targetPoint" />
          </mxGeometry>
        </mxCell>
        <mxCell id="3Prb6uu0wLT552GgA5c9-1" value="Да" style="text;html=1;align=center;verticalAlign=middle;resizable=0;points=[];autosize=1;" vertex="1" parent="OSRMty_R7psP0_w_z1_h-1">
          <mxGeometry x="535" y="310" width="30" height="20" as="geometry" />
        </mxCell>
        <mxCell id="3IFJru0zm5tjIJryzeE1-0" value="" style="ellipse;html=1;shape=endState;fillColor=#000000;strokeColor=#000000;rounded=1;sketch=0;" vertex="1" parent="OSRMty_R7psP0_w_z1_h-1">
          <mxGeometry x="600" y="325" width="30" height="30" as="geometry" />
        </mxCell>
        <mxCell id="Xffabt-WnTVcT1OzzFPx-0" value="Абонент" style="html=1;rounded=0;sketch=0;" vertex="1" parent="OSRMty_R7psP0_w_z1_h-1">
          <mxGeometry x="160" y="150" width="480" height="50" as="geometry" />
        </mxCell>
      </root>
    </mxGraphModel>
  </diagram>
  <diagram id="5piJhIT1UdgOrQXVaUlX" name="Страница 3">
    <mxGraphModel dx="2013" dy="645" grid="1" gridSize="10" guides="1" tooltips="1" connect="1" arrows="1" fold="1" page="1" pageScale="1" pageWidth="827" pageHeight="1169" math="0" shadow="0">
      <root>
        <mxCell id="AZvBUfCuMK3QgeYiaj7d-0" />
        <mxCell id="AZvBUfCuMK3QgeYiaj7d-1" parent="AZvBUfCuMK3QgeYiaj7d-0" />
        <mxCell id="gYFxyXqqvJznAUFEWDnI-0" value="Обработка обращения" style="rounded=1;whiteSpace=wrap;html=1;sketch=0;" vertex="1" parent="AZvBUfCuMK3QgeYiaj7d-1">
          <mxGeometry x="20" y="345" width="120" height="60" as="geometry" />
        </mxCell>
        <mxCell id="gYFxyXqqvJznAUFEWDnI-1" value="" style="edgeStyle=orthogonalEdgeStyle;curved=0;rounded=1;sketch=0;orthogonalLoop=1;jettySize=auto;html=1;startArrow=open;startFill=0;endArrow=none;endFill=0;" edge="1" parent="AZvBUfCuMK3QgeYiaj7d-1" target="gYFxyXqqvJznAUFEWDnI-0">
          <mxGeometry relative="1" as="geometry">
            <mxPoint x="186" y="375" as="sourcePoint" />
          </mxGeometry>
        </mxCell>
        <mxCell id="gYFxyXqqvJznAUFEWDnI-2" value="" style="html=1;points=[];perimeter=orthogonalPerimeter;fillColor=#000000;strokeColor=none;rounded=1;sketch=0;" vertex="1" parent="AZvBUfCuMK3QgeYiaj7d-1">
          <mxGeometry x="186" y="285" width="5" height="160" as="geometry" />
        </mxCell>
        <mxCell id="gYFxyXqqvJznAUFEWDnI-3" style="edgeStyle=orthogonalEdgeStyle;curved=0;rounded=1;sketch=0;orthogonalLoop=1;jettySize=auto;html=1;exitX=0;exitY=0.5;exitDx=0;exitDy=0;entryX=1;entryY=0.313;entryDx=0;entryDy=0;entryPerimeter=0;endArrow=none;endFill=0;startArrow=open;startFill=0;" edge="1" parent="AZvBUfCuMK3QgeYiaj7d-1" source="gYFxyXqqvJznAUFEWDnI-5" target="gYFxyXqqvJznAUFEWDnI-2">
          <mxGeometry relative="1" as="geometry" />
        </mxCell>
        <mxCell id="gYFxyXqqvJznAUFEWDnI-4" style="edgeStyle=orthogonalEdgeStyle;curved=0;rounded=1;sketch=0;orthogonalLoop=1;jettySize=auto;html=1;exitX=1;exitY=0.5;exitDx=0;exitDy=0;startArrow=none;startFill=0;endArrow=open;endFill=0;" edge="1" parent="AZvBUfCuMK3QgeYiaj7d-1" source="gYFxyXqqvJznAUFEWDnI-5" target="gYFxyXqqvJznAUFEWDnI-11">
          <mxGeometry relative="1" as="geometry" />
        </mxCell>
        <mxCell id="gYFxyXqqvJznAUFEWDnI-5" value="Указать технику" style="rounded=1;whiteSpace=wrap;html=1;sketch=0;" vertex="1" parent="AZvBUfCuMK3QgeYiaj7d-1">
          <mxGeometry x="246" y="310" width="90" height="50" as="geometry" />
        </mxCell>
        <mxCell id="gYFxyXqqvJznAUFEWDnI-6" style="edgeStyle=orthogonalEdgeStyle;curved=0;rounded=1;sketch=0;orthogonalLoop=1;jettySize=auto;html=1;exitX=0;exitY=0.5;exitDx=0;exitDy=0;entryX=0.8;entryY=0.813;entryDx=0;entryDy=0;entryPerimeter=0;endArrow=none;endFill=0;startArrow=open;startFill=0;" edge="1" parent="AZvBUfCuMK3QgeYiaj7d-1" source="gYFxyXqqvJznAUFEWDnI-8" target="gYFxyXqqvJznAUFEWDnI-2">
          <mxGeometry relative="1" as="geometry" />
        </mxCell>
        <mxCell id="gYFxyXqqvJznAUFEWDnI-7" style="edgeStyle=orthogonalEdgeStyle;curved=0;rounded=1;sketch=0;orthogonalLoop=1;jettySize=auto;html=1;exitX=1;exitY=0.5;exitDx=0;exitDy=0;entryX=0;entryY=0.5;entryDx=0;entryDy=0;startArrow=none;startFill=0;endArrow=open;endFill=0;" edge="1" parent="AZvBUfCuMK3QgeYiaj7d-1" source="gYFxyXqqvJznAUFEWDnI-8" target="gYFxyXqqvJznAUFEWDnI-11">
          <mxGeometry relative="1" as="geometry" />
        </mxCell>
        <mxCell id="gYFxyXqqvJznAUFEWDnI-8" value="Указать абонента" style="rounded=1;whiteSpace=wrap;html=1;sketch=0;" vertex="1" parent="AZvBUfCuMK3QgeYiaj7d-1">
          <mxGeometry x="246" y="395" width="100" height="40" as="geometry" />
        </mxCell>
        <mxCell id="gYFxyXqqvJznAUFEWDnI-9" style="edgeStyle=orthogonalEdgeStyle;curved=0;rounded=1;sketch=0;orthogonalLoop=1;jettySize=auto;html=1;exitX=0.5;exitY=0;exitDx=0;exitDy=0;entryX=0.5;entryY=1;entryDx=0;entryDy=0;startArrow=none;startFill=0;endArrow=open;endFill=0;" edge="1" parent="AZvBUfCuMK3QgeYiaj7d-1" source="gYFxyXqqvJznAUFEWDnI-11" target="gYFxyXqqvJznAUFEWDnI-12">
          <mxGeometry relative="1" as="geometry" />
        </mxCell>
        <mxCell id="gYFxyXqqvJznAUFEWDnI-10" style="edgeStyle=orthogonalEdgeStyle;curved=0;rounded=1;sketch=0;orthogonalLoop=1;jettySize=auto;html=1;exitX=1;exitY=0.5;exitDx=0;exitDy=0;startArrow=none;startFill=0;endArrow=open;endFill=0;" edge="1" parent="AZvBUfCuMK3QgeYiaj7d-1">
          <mxGeometry relative="1" as="geometry">
            <mxPoint x="676" y="375" as="targetPoint" />
            <mxPoint x="676" y="375" as="sourcePoint" />
          </mxGeometry>
        </mxCell>
        <mxCell id="gYFxyXqqvJznAUFEWDnI-11" value="Есть ли данный пользователь/техники в система" style="rhombus;whiteSpace=wrap;html=1;" vertex="1" parent="AZvBUfCuMK3QgeYiaj7d-1">
          <mxGeometry x="396" y="285" width="120" height="180" as="geometry" />
        </mxCell>
        <mxCell id="gYFxyXqqvJznAUFEWDnI-25" style="edgeStyle=orthogonalEdgeStyle;rounded=0;orthogonalLoop=1;jettySize=auto;html=1;exitX=1;exitY=0.5;exitDx=0;exitDy=0;entryX=0.25;entryY=0;entryDx=0;entryDy=0;" edge="1" parent="AZvBUfCuMK3QgeYiaj7d-1" source="gYFxyXqqvJznAUFEWDnI-12" target="gYFxyXqqvJznAUFEWDnI-22">
          <mxGeometry relative="1" as="geometry" />
        </mxCell>
        <mxCell id="gYFxyXqqvJznAUFEWDnI-12" value="Регистрирует&amp;nbsp;" style="rounded=1;whiteSpace=wrap;html=1;sketch=0;" vertex="1" parent="AZvBUfCuMK3QgeYiaj7d-1">
          <mxGeometry x="401" y="160" width="110" height="40" as="geometry" />
        </mxCell>
        <mxCell id="gYFxyXqqvJznAUFEWDnI-13" value="Нет" style="text;html=1;align=center;verticalAlign=middle;resizable=0;points=[];autosize=1;" vertex="1" parent="AZvBUfCuMK3QgeYiaj7d-1">
          <mxGeometry x="386" y="255" width="40" height="20" as="geometry" />
        </mxCell>
        <mxCell id="gYFxyXqqvJznAUFEWDnI-14" value="" style="edgeStyle=orthogonalEdgeStyle;curved=0;rounded=1;sketch=0;orthogonalLoop=1;jettySize=auto;html=1;startArrow=open;startFill=0;endArrow=none;endFill=0;" edge="1" parent="AZvBUfCuMK3QgeYiaj7d-1" source="gYFxyXqqvJznAUFEWDnI-15" target="gYFxyXqqvJznAUFEWDnI-11">
          <mxGeometry relative="1" as="geometry" />
        </mxCell>
        <mxCell id="gYFxyXqqvJznAUFEWDnI-15" value="" style="html=1;points=[];perimeter=orthogonalPerimeter;fillColor=#000000;strokeColor=none;rounded=1;sketch=0;" vertex="1" parent="AZvBUfCuMK3QgeYiaj7d-1">
          <mxGeometry x="556" y="295" width="5" height="160" as="geometry" />
        </mxCell>
        <mxCell id="gYFxyXqqvJznAUFEWDnI-16" style="edgeStyle=orthogonalEdgeStyle;curved=0;rounded=1;sketch=0;orthogonalLoop=1;jettySize=auto;html=1;exitX=0.5;exitY=0;exitDx=0;exitDy=0;startArrow=none;startFill=0;endArrow=open;endFill=0;entryX=0.5;entryY=1;entryDx=0;entryDy=0;" edge="1" parent="AZvBUfCuMK3QgeYiaj7d-1" source="gYFxyXqqvJznAUFEWDnI-20" target="gYFxyXqqvJznAUFEWDnI-17">
          <mxGeometry relative="1" as="geometry">
            <mxPoint x="916" y="230" as="targetPoint" />
          </mxGeometry>
        </mxCell>
        <mxCell id="gYFxyXqqvJznAUFEWDnI-17" value="" style="ellipse;html=1;shape=endState;fillColor=#000000;strokeColor=#000000;rounded=1;sketch=0;" vertex="1" parent="AZvBUfCuMK3QgeYiaj7d-1">
          <mxGeometry x="771" y="150" width="30" height="30" as="geometry" />
        </mxCell>
        <mxCell id="gYFxyXqqvJznAUFEWDnI-18" value="Нет" style="text;html=1;align=center;verticalAlign=middle;resizable=0;points=[];autosize=1;" vertex="1" parent="AZvBUfCuMK3QgeYiaj7d-1">
          <mxGeometry x="860" y="345" width="40" height="20" as="geometry" />
        </mxCell>
        <mxCell id="gYFxyXqqvJznAUFEWDnI-19" value="" style="edgeStyle=orthogonalEdgeStyle;curved=0;rounded=1;sketch=0;orthogonalLoop=1;jettySize=auto;html=1;startArrow=open;startFill=0;endArrow=none;endFill=0;" edge="1" parent="AZvBUfCuMK3QgeYiaj7d-1" source="gYFxyXqqvJznAUFEWDnI-20" target="gYFxyXqqvJznAUFEWDnI-22">
          <mxGeometry relative="1" as="geometry" />
        </mxCell>
        <mxCell id="yurEs8Pwb-mxoJ-zW6sh-3" value="" style="edgeStyle=orthogonalEdgeStyle;rounded=0;orthogonalLoop=1;jettySize=auto;html=1;" edge="1" parent="AZvBUfCuMK3QgeYiaj7d-1" source="gYFxyXqqvJznAUFEWDnI-20" target="yurEs8Pwb-mxoJ-zW6sh-2">
          <mxGeometry relative="1" as="geometry" />
        </mxCell>
        <mxCell id="gYFxyXqqvJznAUFEWDnI-20" value="Помогла&lt;br&gt;ли устная консультация" style="rhombus;whiteSpace=wrap;html=1;" vertex="1" parent="AZvBUfCuMK3QgeYiaj7d-1">
          <mxGeometry x="721" y="317.5" width="130" height="115" as="geometry" />
        </mxCell>
        <mxCell id="gYFxyXqqvJznAUFEWDnI-21" value="" style="edgeStyle=orthogonalEdgeStyle;curved=0;rounded=1;sketch=0;orthogonalLoop=1;jettySize=auto;html=1;startArrow=open;startFill=0;endArrow=none;endFill=0;" edge="1" parent="AZvBUfCuMK3QgeYiaj7d-1" source="gYFxyXqqvJznAUFEWDnI-22" target="gYFxyXqqvJznAUFEWDnI-11">
          <mxGeometry relative="1" as="geometry" />
        </mxCell>
        <mxCell id="gYFxyXqqvJznAUFEWDnI-22" value="Устная консультация" style="rounded=1;whiteSpace=wrap;html=1;sketch=0;" vertex="1" parent="AZvBUfCuMK3QgeYiaj7d-1">
          <mxGeometry x="596" y="355" width="100" height="40" as="geometry" />
        </mxCell>
        <mxCell id="gYFxyXqqvJznAUFEWDnI-23" value="Да" style="text;html=1;align=center;verticalAlign=middle;resizable=0;points=[];autosize=1;" vertex="1" parent="AZvBUfCuMK3QgeYiaj7d-1">
          <mxGeometry x="751" y="250" width="30" height="20" as="geometry" />
        </mxCell>
        <mxCell id="yurEs8Pwb-mxoJ-zW6sh-1" value="" style="edgeStyle=orthogonalEdgeStyle;rounded=0;orthogonalLoop=1;jettySize=auto;html=1;" edge="1" parent="AZvBUfCuMK3QgeYiaj7d-1" source="yurEs8Pwb-mxoJ-zW6sh-0" target="gYFxyXqqvJznAUFEWDnI-0">
          <mxGeometry relative="1" as="geometry" />
        </mxCell>
        <mxCell id="yurEs8Pwb-mxoJ-zW6sh-0" value="" style="ellipse;fillColor=#000000;strokeColor=none;rounded=0;sketch=0;" vertex="1" parent="AZvBUfCuMK3QgeYiaj7d-1">
          <mxGeometry x="-70" y="360" width="30" height="30" as="geometry" />
        </mxCell>
        <mxCell id="yurEs8Pwb-mxoJ-zW6sh-2" value="" style="ellipse;html=1;shape=endState;fillColor=#000000;strokeColor=#000000;rounded=1;sketch=0;" vertex="1" parent="AZvBUfCuMK3QgeYiaj7d-1">
          <mxGeometry x="920" y="360" width="30" height="30" as="geometry" />
        </mxCell>
        <mxCell id="AuOq9bo5vGDlk1ytZaio-0" value="Оператор" style="html=1;rounded=0;sketch=0;" vertex="1" parent="AZvBUfCuMK3QgeYiaj7d-1">
          <mxGeometry x="-80" y="30" width="1040" height="50" as="geometry" />
        </mxCell>
      </root>
    </mxGraphModel>
  </diagram>
  <diagram id="OTfN7A2uebjKPFPx_hgy" name="Страница 4">
    <mxGraphModel dx="359" dy="645" grid="1" gridSize="10" guides="1" tooltips="1" connect="1" arrows="1" fold="1" page="1" pageScale="1" pageWidth="827" pageHeight="1169" math="0" shadow="0">
      <root>
        <mxCell id="om3O5mASEm3uRVaxVQ4h-0" />
        <mxCell id="om3O5mASEm3uRVaxVQ4h-1" parent="om3O5mASEm3uRVaxVQ4h-0" />
        <mxCell id="om3O5mASEm3uRVaxVQ4h-2" style="edgeStyle=orthogonalEdgeStyle;curved=0;rounded=1;sketch=0;orthogonalLoop=1;jettySize=auto;html=1;exitX=0.5;exitY=0;exitDx=0;exitDy=0;entryX=0.5;entryY=1;entryDx=0;entryDy=0;startArrow=none;startFill=0;endArrow=open;endFill=0;" edge="1" parent="om3O5mASEm3uRVaxVQ4h-1" source="om3O5mASEm3uRVaxVQ4h-3" target="om3O5mASEm3uRVaxVQ4h-4">
          <mxGeometry relative="1" as="geometry" />
        </mxCell>
        <mxCell id="om3O5mASEm3uRVaxVQ4h-3" value="Заявка" style="rounded=0;whiteSpace=wrap;html=1;sketch=0;" vertex="1" parent="om3O5mASEm3uRVaxVQ4h-1">
          <mxGeometry x="1130" y="405" width="120" height="60" as="geometry" />
        </mxCell>
        <mxCell id="om3O5mASEm3uRVaxVQ4h-4" value="(ИС)&lt;br&gt;Занесение заявки в базу данных&amp;nbsp;" style="rounded=1;whiteSpace=wrap;html=1;sketch=0;" vertex="1" parent="om3O5mASEm3uRVaxVQ4h-1">
          <mxGeometry x="1130" y="255" width="120" height="60" as="geometry" />
        </mxCell>
        <mxCell id="om3O5mASEm3uRVaxVQ4h-5" value="" style="ellipse;html=1;shape=endState;fillColor=#000000;strokeColor=#000000;rounded=1;sketch=0;" vertex="1" parent="om3O5mASEm3uRVaxVQ4h-1">
          <mxGeometry x="1290" y="340" width="30" height="30" as="geometry" />
        </mxCell>
        <mxCell id="om3O5mASEm3uRVaxVQ4h-6" style="edgeStyle=orthogonalEdgeStyle;curved=0;rounded=1;sketch=0;orthogonalLoop=1;jettySize=auto;html=1;exitX=1;exitY=0.5;exitDx=0;exitDy=0;startArrow=none;startFill=0;endArrow=open;endFill=0;" edge="1" parent="om3O5mASEm3uRVaxVQ4h-1" source="om3O5mASEm3uRVaxVQ4h-4" target="om3O5mASEm3uRVaxVQ4h-5">
          <mxGeometry relative="1" as="geometry">
            <mxPoint x="1280" y="359.7142857142858" as="targetPoint" />
            <mxPoint x="1200" y="360" as="sourcePoint" />
          </mxGeometry>
        </mxCell>
        <mxCell id="om3O5mASEm3uRVaxVQ4h-7" value="ИС" style="html=1;rounded=0;sketch=0;" vertex="1" parent="om3O5mASEm3uRVaxVQ4h-1">
          <mxGeometry x="1000" y="170" width="360" height="50" as="geometry" />
        </mxCell>
        <mxCell id="-rT9O3XhkEsFXmDtOk1k-1" value="" style="edgeStyle=orthogonalEdgeStyle;rounded=0;orthogonalLoop=1;jettySize=auto;html=1;" edge="1" parent="om3O5mASEm3uRVaxVQ4h-1" source="-rT9O3XhkEsFXmDtOk1k-0" target="om3O5mASEm3uRVaxVQ4h-3">
          <mxGeometry relative="1" as="geometry" />
        </mxCell>
        <mxCell id="-rT9O3XhkEsFXmDtOk1k-0" value="" style="ellipse;fillColor=#000000;strokeColor=none;rounded=0;sketch=0;" vertex="1" parent="om3O5mASEm3uRVaxVQ4h-1">
          <mxGeometry x="1020" y="420" width="30" height="30" as="geometry" />
        </mxCell>
      </root>
    </mxGraphModel>
  </diagram>
</mxfile>
